<svg xmlns="http://www.w3.org/2000/svg" xmlns:xlink="http://www.w3.org/1999/xlink" width="500" zoomAndPan="magnify" viewBox="0 0 375 374.999991" height="500" preserveAspectRatio="xMidYMid meet" version="1.0"><path fill="#ffffff" d="M 5.148438 296.660156 L 5.148438 76.628906 C 5.109375 71.722656 5.570312 66.867188 6.53125 62.058594 C 7.496094 57.25 8.941406 52.589844 10.867188 48.078125 C 12.714844 43.726562 14.957031 39.589844 17.601562 35.667969 C 20.246094 31.746094 23.238281 28.113281 26.582031 24.769531 C 29.925781 21.425781 33.558594 18.433594 37.480469 15.789062 C 41.398438 13.148438 45.535156 10.902344 49.890625 9.054688 C 54.402344 7.128906 59.0625 5.683594 63.875 4.71875 C 68.683594 3.753906 73.542969 3.292969 78.449219 3.328125 L 335.152344 3.328125 C 336.355469 3.328125 337.550781 3.386719 338.746094 3.507812 C 339.941406 3.625 341.128906 3.800781 342.308594 4.035156 C 343.484375 4.269531 344.648438 4.558594 345.796875 4.910156 C 346.949219 5.257812 348.078125 5.660156 349.1875 6.121094 C 350.296875 6.582031 351.382812 7.09375 352.441406 7.660156 C 353.5 8.226562 354.527344 8.84375 355.527344 9.511719 C 356.527344 10.175781 357.488281 10.890625 358.417969 11.652344 C 359.347656 12.414062 360.234375 13.222656 361.085938 14.070312 C 361.933594 14.917969 362.738281 15.808594 363.5 16.738281 C 364.261719 17.664062 364.976562 18.628906 365.644531 19.628906 C 366.3125 20.625 366.929688 21.65625 367.496094 22.714844 C 368.0625 23.773438 368.574219 24.859375 369.035156 25.96875 C 369.492188 27.078125 369.898438 28.207031 370.246094 29.355469 C 370.59375 30.503906 370.886719 31.667969 371.121094 32.847656 C 371.355469 34.023438 371.53125 35.210938 371.648438 36.40625 C 371.765625 37.601562 371.824219 38.800781 371.824219 40 C 371.824219 41.203125 371.765625 42.402344 371.648438 43.597656 C 371.53125 44.792969 371.355469 45.976562 371.121094 47.15625 C 370.886719 48.332031 370.59375 49.496094 370.246094 50.648438 C 369.898438 51.796875 369.492188 52.925781 369.035156 54.035156 C 368.574219 55.144531 368.0625 56.230469 367.496094 57.289062 C 366.929688 58.347656 366.3125 59.375 365.644531 60.375 C 364.976562 61.375 364.261719 62.335938 363.5 63.265625 C 362.738281 64.195312 361.933594 65.082031 361.085938 65.933594 C 360.234375 66.78125 359.347656 67.585938 358.417969 68.347656 C 357.488281 69.109375 356.527344 69.824219 355.527344 70.492188 C 354.527344 71.160156 353.5 71.777344 352.441406 72.34375 C 351.382812 72.910156 350.296875 73.421875 349.1875 73.882812 C 348.078125 74.339844 346.949219 74.746094 345.796875 75.09375 C 344.648438 75.441406 343.484375 75.734375 342.308594 75.96875 C 341.128906 76.203125 339.941406 76.378906 338.746094 76.496094 C 337.550781 76.613281 336.355469 76.671875 335.152344 76.671875 L 101.5 76.671875 C 100.746094 76.679688 99.996094 76.722656 99.246094 76.804688 C 98.496094 76.882812 97.753906 77 97.015625 77.152344 C 96.277344 77.300781 95.550781 77.488281 94.832031 77.710938 C 94.113281 77.933594 93.40625 78.191406 92.710938 78.484375 C 92.015625 78.773438 91.335938 79.097656 90.675781 79.457031 C 90.011719 79.8125 89.367188 80.203125 88.742188 80.621094 C 88.117188 81.042969 87.511719 81.492188 86.929688 81.96875 C 86.351562 82.445312 85.792969 82.953125 85.261719 83.484375 C 84.726562 84.019531 84.222656 84.574219 83.742188 85.15625 C 83.265625 85.738281 82.816406 86.339844 82.394531 86.964844 C 81.976562 87.59375 81.589844 88.234375 81.230469 88.898438 C 80.875 89.5625 80.550781 90.242188 80.257812 90.933594 C 79.96875 91.628906 79.710938 92.335938 79.488281 93.054688 C 79.265625 93.773438 79.078125 94.503906 78.925781 95.242188 C 78.773438 95.980469 78.65625 96.722656 78.578125 97.472656 C 78.5 98.21875 78.457031 98.972656 78.449219 99.722656 L 78.449219 273.609375 C 78.453125 274.363281 78.496094 275.113281 78.578125 275.863281 C 78.65625 276.613281 78.769531 277.355469 78.921875 278.09375 C 79.074219 278.832031 79.261719 279.5625 79.484375 280.28125 C 79.707031 281 79.960938 281.707031 80.253906 282.402344 C 80.542969 283.097656 80.867188 283.777344 81.226562 284.4375 C 81.582031 285.101562 81.972656 285.746094 82.390625 286.371094 C 82.8125 286.996094 83.261719 287.601562 83.738281 288.183594 C 84.214844 288.765625 84.722656 289.320312 85.253906 289.855469 C 85.789062 290.386719 86.34375 290.890625 86.925781 291.371094 C 87.507812 291.847656 88.113281 292.296875 88.738281 292.71875 C 89.363281 293.136719 90.007812 293.527344 90.671875 293.882812 C 91.332031 294.242188 92.011719 294.566406 92.707031 294.855469 C 93.402344 295.148438 94.109375 295.402344 94.828125 295.625 C 95.546875 295.847656 96.277344 296.035156 97.015625 296.1875 C 97.753906 296.339844 98.496094 296.453125 99.246094 296.53125 C 99.996094 296.613281 100.746094 296.65625 101.5 296.660156 L 335.152344 296.660156 C 336.355469 296.660156 337.550781 296.71875 338.746094 296.835938 C 339.941406 296.953125 341.128906 297.132812 342.308594 297.367188 C 343.484375 297.597656 344.648438 297.890625 345.796875 298.238281 C 346.949219 298.589844 348.078125 298.992188 349.1875 299.453125 C 350.296875 299.910156 351.382812 300.425781 352.441406 300.992188 C 353.5 301.558594 354.527344 302.171875 355.527344 302.839844 C 356.527344 303.507812 357.488281 304.222656 358.417969 304.984375 C 359.347656 305.746094 360.234375 306.550781 361.085938 307.402344 C 361.933594 308.25 362.738281 309.140625 363.5 310.066406 C 364.261719 310.996094 364.976562 311.960938 365.644531 312.957031 C 366.3125 313.957031 366.929688 314.984375 367.496094 316.046875 C 368.0625 317.105469 368.574219 318.1875 369.035156 319.296875 C 369.492188 320.410156 369.898438 321.539062 370.246094 322.6875 C 370.59375 323.835938 370.886719 325 371.121094 326.179688 C 371.355469 327.355469 371.53125 328.542969 371.648438 329.738281 C 371.765625 330.933594 371.824219 332.132812 371.824219 333.332031 C 371.824219 334.535156 371.765625 335.730469 371.648438 336.925781 C 371.53125 338.121094 371.355469 339.308594 371.121094 340.488281 C 370.886719 341.664062 370.59375 342.828125 370.246094 343.976562 C 369.898438 345.128906 369.492188 346.257812 369.035156 347.367188 C 368.574219 348.476562 368.0625 349.558594 367.496094 350.621094 C 366.929688 351.679688 366.3125 352.707031 365.644531 353.707031 C 364.976562 354.707031 364.261719 355.667969 363.5 356.597656 C 362.738281 357.527344 361.933594 358.414062 361.085938 359.265625 C 360.234375 360.113281 359.347656 360.917969 358.417969 361.679688 C 357.488281 362.441406 356.527344 363.15625 355.527344 363.824219 C 354.527344 364.492188 353.5 365.109375 352.441406 365.675781 C 351.382812 366.242188 350.296875 366.753906 349.1875 367.214844 C 348.078125 367.671875 346.949219 368.078125 345.796875 368.425781 C 344.648438 368.773438 343.484375 369.066406 342.308594 369.300781 C 341.128906 369.535156 339.941406 369.710938 338.746094 369.828125 C 337.550781 369.945312 336.355469 370.003906 335.152344 370.003906 L 78.449219 370.003906 C 73.542969 370.039062 68.683594 369.570312 63.875 368.601562 C 59.066406 367.628906 54.40625 366.175781 49.898438 364.242188 C 45.546875 362.394531 41.410156 360.152344 37.488281 357.507812 C 33.566406 354.863281 29.933594 351.871094 26.589844 348.527344 C 23.246094 345.183594 20.253906 341.550781 17.609375 337.628906 C 14.96875 333.710938 12.722656 329.574219 10.875 325.21875 C 8.949219 320.707031 7.5 316.046875 6.535156 311.234375 C 5.570312 306.425781 5.109375 301.566406 5.148438 296.660156 Z M 5.148438 296.660156 " fill-opacity="1" fill-rule="nonzero"/><path fill="#ffffff" d="M 233.703125 186.644531 C 233.703125 188.125 233.632812 189.605469 233.484375 191.078125 C 233.339844 192.554688 233.125 194.015625 232.835938 195.46875 C 232.546875 196.921875 232.1875 198.359375 231.753906 199.777344 C 231.324219 201.195312 230.828125 202.585938 230.261719 203.957031 C 229.691406 205.324219 229.058594 206.664062 228.363281 207.96875 C 227.664062 209.277344 226.902344 210.546875 226.078125 211.777344 C 225.257812 213.007812 224.375 214.199219 223.433594 215.34375 C 222.496094 216.488281 221.5 217.585938 220.453125 218.632812 C 219.40625 219.679688 218.308594 220.675781 217.164062 221.613281 C 216.019531 222.554688 214.828125 223.4375 213.597656 224.257812 C 212.367188 225.082031 211.097656 225.84375 209.789062 226.542969 C 208.484375 227.238281 207.144531 227.871094 205.777344 228.441406 C 204.40625 229.007812 203.015625 229.503906 201.597656 229.933594 C 200.179688 230.367188 198.742188 230.726562 197.289062 231.015625 C 195.835938 231.304688 194.375 231.519531 192.898438 231.664062 C 191.425781 231.8125 189.945312 231.882812 188.464844 231.882812 C 186.984375 231.882812 185.503906 231.8125 184.03125 231.664062 C 182.554688 231.519531 181.09375 231.304688 179.640625 231.015625 C 178.1875 230.726562 176.75 230.367188 175.332031 229.933594 C 173.914062 229.503906 172.519531 229.007812 171.152344 228.441406 C 169.785156 227.871094 168.445312 227.238281 167.140625 226.542969 C 165.832031 225.84375 164.5625 225.082031 163.332031 224.257812 C 162.097656 223.4375 160.910156 222.554688 159.765625 221.613281 C 158.621094 220.675781 157.523438 219.679688 156.476562 218.632812 C 155.429688 217.585938 154.433594 216.488281 153.496094 215.34375 C 152.554688 214.199219 151.671875 213.007812 150.851562 211.777344 C 150.027344 210.546875 149.265625 209.277344 148.566406 207.96875 C 147.871094 206.664062 147.238281 205.324219 146.667969 203.957031 C 146.101562 202.585938 145.605469 201.195312 145.175781 199.777344 C 144.742188 198.359375 144.382812 196.921875 144.09375 195.46875 C 143.804688 194.015625 143.589844 192.554688 143.445312 191.078125 C 143.296875 189.605469 143.226562 188.125 143.226562 186.644531 C 143.226562 185.164062 143.296875 183.683594 143.445312 182.210938 C 143.589844 180.734375 143.804688 179.273438 144.09375 177.820312 C 144.382812 176.367188 144.742188 174.929688 145.175781 173.511719 C 145.605469 172.09375 146.101562 170.699219 146.667969 169.332031 C 147.238281 167.964844 147.871094 166.625 148.566406 165.320312 C 149.265625 164.011719 150.027344 162.742188 150.851562 161.511719 C 151.671875 160.277344 152.554688 159.089844 153.496094 157.945312 C 154.433594 156.800781 155.429688 155.703125 156.476562 154.65625 C 157.523438 153.609375 158.621094 152.613281 159.765625 151.675781 C 160.910156 150.734375 162.097656 149.851562 163.332031 149.03125 C 164.5625 148.207031 165.832031 147.445312 167.140625 146.746094 C 168.445312 146.050781 169.785156 145.417969 171.152344 144.847656 C 172.519531 144.28125 173.914062 143.785156 175.332031 143.355469 C 176.75 142.921875 178.1875 142.5625 179.640625 142.273438 C 181.09375 141.984375 182.554688 141.769531 184.03125 141.625 C 185.503906 141.476562 186.984375 141.40625 188.464844 141.40625 C 189.945312 141.40625 191.425781 141.476562 192.898438 141.625 C 194.375 141.769531 195.835938 141.984375 197.289062 142.273438 C 198.742188 142.5625 200.179688 142.921875 201.597656 143.351562 C 203.015625 143.785156 204.40625 144.28125 205.777344 144.847656 C 207.144531 145.417969 208.484375 146.050781 209.789062 146.746094 C 211.097656 147.445312 212.367188 148.207031 213.597656 149.03125 C 214.828125 149.851562 216.019531 150.734375 217.164062 151.675781 C 218.308594 152.613281 219.40625 153.609375 220.453125 154.65625 C 221.5 155.703125 222.496094 156.800781 223.433594 157.945312 C 224.375 159.089844 225.257812 160.277344 226.078125 161.511719 C 226.902344 162.742188 227.664062 164.011719 228.363281 165.320312 C 229.058594 166.625 229.691406 167.964844 230.261719 169.332031 C 230.828125 170.699219 231.324219 172.09375 231.753906 173.511719 C 232.1875 174.929688 232.546875 176.367188 232.835938 177.820312 C 233.125 179.273438 233.339844 180.734375 233.484375 182.210938 C 233.632812 183.683594 233.703125 185.164062 233.703125 186.644531 Z M 233.703125 186.644531 " fill-opacity="1" fill-rule="nonzero"/></svg>