<svg xmlns="http://www.w3.org/2000/svg" xmlns:xlink="http://www.w3.org/1999/xlink" width="500" zoomAndPan="magnify" viewBox="0 0 375 374.999991" height="500" preserveAspectRatio="xMidYMid meet" version="1.0"><defs><g/><clipPath id="20de779d47"><path d="M 55 162.445312 L 104.691406 162.445312 L 104.691406 212 L 55 212 Z M 55 162.445312 " clip-rule="nonzero"/></clipPath></defs><g clip-path="url(#20de779d47)"><path fill="#ffffff" d="M 55.140625 202.175781 L 55.140625 172.714844 C 55.128906 171.386719 55.386719 170.113281 55.90625 168.894531 C 56.40625 167.714844 57.105469 166.675781 58.011719 165.773438 C 58.914062 164.867188 59.953125 164.167969 61.132812 163.667969 C 62.351562 163.148438 63.625 162.890625 64.953125 162.902344 L 99.324219 162.902344 C 99.644531 162.902344 99.964844 162.933594 100.28125 162.996094 C 100.597656 163.058594 100.90625 163.152344 101.203125 163.277344 C 101.5 163.398438 101.78125 163.550781 102.050781 163.730469 C 102.320312 163.910156 102.566406 164.113281 102.796875 164.339844 C 103.023438 164.566406 103.226562 164.816406 103.40625 165.085938 C 103.585938 165.351562 103.734375 165.636719 103.859375 165.933594 C 103.984375 166.230469 104.074219 166.539062 104.140625 166.855469 C 104.203125 167.171875 104.234375 167.488281 104.234375 167.8125 C 104.234375 168.132812 104.203125 168.453125 104.140625 168.769531 C 104.074219 169.085938 103.984375 169.394531 103.859375 169.691406 C 103.734375 169.988281 103.585938 170.273438 103.40625 170.539062 C 103.226562 170.808594 103.023438 171.054688 102.796875 171.285156 C 102.566406 171.511719 102.320312 171.714844 102.050781 171.894531 C 101.78125 172.074219 101.5 172.226562 101.203125 172.347656 C 100.90625 172.472656 100.597656 172.566406 100.28125 172.628906 C 99.964844 172.691406 99.644531 172.722656 99.324219 172.722656 L 68.039062 172.722656 C 67.632812 172.726562 67.242188 172.804688 66.863281 172.964844 C 66.488281 173.121094 66.15625 173.34375 65.867188 173.632812 C 65.578125 173.921875 65.355469 174.253906 65.195312 174.632812 C 65.039062 175.007812 64.957031 175.398438 64.953125 175.808594 L 64.953125 199.089844 C 64.957031 199.496094 65.039062 199.890625 65.195312 200.265625 C 65.355469 200.640625 65.578125 200.976562 65.867188 201.261719 C 66.15625 201.550781 66.488281 201.773438 66.863281 201.933594 C 67.238281 202.089844 67.632812 202.171875 68.039062 202.175781 L 99.324219 202.175781 C 99.644531 202.175781 99.964844 202.207031 100.28125 202.269531 C 100.597656 202.332031 100.90625 202.425781 101.203125 202.546875 C 101.5 202.671875 101.78125 202.824219 102.050781 203.003906 C 102.320312 203.179688 102.566406 203.382812 102.796875 203.613281 C 103.023438 203.839844 103.226562 204.089844 103.40625 204.355469 C 103.585938 204.625 103.734375 204.90625 103.859375 205.207031 C 103.984375 205.503906 104.074219 205.808594 104.140625 206.125 C 104.203125 206.441406 104.234375 206.761719 104.234375 207.085938 C 104.234375 207.40625 104.203125 207.726562 104.140625 208.042969 C 104.074219 208.359375 103.984375 208.664062 103.859375 208.964844 C 103.734375 209.261719 103.585938 209.542969 103.40625 209.8125 C 103.226562 210.082031 103.023438 210.328125 102.796875 210.554688 C 102.566406 210.785156 102.320312 210.988281 102.050781 211.167969 C 101.78125 211.347656 101.5 211.496094 101.203125 211.621094 C 100.90625 211.742188 100.597656 211.835938 100.28125 211.898438 C 99.964844 211.960938 99.644531 211.996094 99.324219 211.996094 L 64.953125 211.996094 C 63.625 212.003906 62.351562 211.746094 61.132812 211.222656 C 59.957031 210.722656 58.914062 210.023438 58.011719 209.117188 C 57.109375 208.214844 56.40625 207.175781 55.90625 206 C 55.386719 204.777344 55.128906 203.503906 55.140625 202.175781 Z M 55.140625 202.175781 " fill-opacity="1" fill-rule="nonzero"/></g><path fill="#ffffff" d="M 85.742188 187.445312 C 85.742188 187.84375 85.703125 188.238281 85.625 188.625 C 85.546875 189.015625 85.433594 189.394531 85.28125 189.761719 C 85.128906 190.128906 84.941406 190.480469 84.71875 190.808594 C 84.5 191.140625 84.246094 191.445312 83.964844 191.726562 C 83.6875 192.007812 83.378906 192.261719 83.050781 192.480469 C 82.71875 192.703125 82.371094 192.886719 82 193.039062 C 81.632812 193.191406 81.253906 193.308594 80.867188 193.386719 C 80.476562 193.464844 80.082031 193.5 79.683594 193.5 C 79.285156 193.5 78.890625 193.464844 78.503906 193.386719 C 78.113281 193.308594 77.734375 193.191406 77.367188 193.039062 C 77 192.886719 76.648438 192.703125 76.320312 192.480469 C 75.988281 192.261719 75.683594 192.007812 75.402344 191.726562 C 75.121094 191.445312 74.867188 191.140625 74.648438 190.808594 C 74.425781 190.480469 74.242188 190.128906 74.089844 189.761719 C 73.9375 189.394531 73.820312 189.015625 73.742188 188.625 C 73.664062 188.238281 73.628906 187.84375 73.628906 187.445312 C 73.628906 187.046875 73.664062 186.652344 73.742188 186.261719 C 73.820312 185.875 73.9375 185.496094 74.089844 185.128906 C 74.242188 184.761719 74.425781 184.410156 74.648438 184.082031 C 74.867188 183.75 75.121094 183.445312 75.402344 183.164062 C 75.683594 182.882812 75.988281 182.628906 76.320312 182.410156 C 76.648438 182.1875 77 182 77.367188 181.847656 C 77.734375 181.695312 78.113281 181.582031 78.503906 181.503906 C 78.890625 181.425781 79.285156 181.386719 79.683594 181.386719 C 80.082031 181.386719 80.476562 181.425781 80.867188 181.503906 C 81.253906 181.582031 81.632812 181.695312 82 181.847656 C 82.371094 182 82.71875 182.1875 83.050781 182.410156 C 83.378906 182.628906 83.6875 182.882812 83.964844 183.164062 C 84.246094 183.445312 84.5 183.75 84.71875 184.082031 C 84.941406 184.410156 85.128906 184.761719 85.28125 185.128906 C 85.433594 185.496094 85.546875 185.875 85.625 186.261719 C 85.703125 186.652344 85.742188 187.046875 85.742188 187.445312 Z M 85.742188 187.445312 " fill-opacity="1" fill-rule="nonzero"/><g fill="#ffffff" fill-opacity="1"><g transform="translate(111.182493, 199.849651)"><g><path d="M 25.59375 0 L 15.234375 0 C 14.429688 0.164062 13.65625 0.25 12.90625 0.25 C 10.84375 0.25 8.9375 -0.257812 7.1875 -1.28125 C 5.445312 -2.3125 4.066406 -3.695312 3.046875 -5.4375 C 2.023438 -7.175781 1.515625 -9.078125 1.515625 -11.140625 C 1.515625 -13.160156 2.023438 -15.050781 3.046875 -16.8125 C 4.066406 -18.570312 5.453125 -19.972656 7.203125 -21.015625 C 8.960938 -22.066406 10.863281 -22.59375 12.90625 -22.59375 C 14.945312 -22.59375 16.84375 -22.066406 18.59375 -21.015625 C 20.34375 -19.972656 21.738281 -18.570312 22.78125 -16.8125 C 23.820312 -15.050781 24.34375 -13.160156 24.34375 -11.140625 C 24.34375 -9.890625 24.140625 -8.679688 23.734375 -7.515625 C 23.335938 -6.347656 22.773438 -5.28125 22.046875 -4.3125 L 25.59375 -4.3125 Z M 6.078125 -11.140625 C 6.078125 -9.847656 6.382812 -8.660156 7 -7.578125 C 7.613281 -6.492188 8.453125 -5.628906 9.515625 -4.984375 C 10.578125 -4.347656 11.753906 -4.03125 13.046875 -4.03125 C 14.304688 -4.03125 15.453125 -4.347656 16.484375 -4.984375 C 17.515625 -5.628906 18.320312 -6.492188 18.90625 -7.578125 C 19.5 -8.660156 19.796875 -9.847656 19.796875 -11.140625 C 19.796875 -12.429688 19.488281 -13.617188 18.875 -14.703125 C 18.269531 -15.785156 17.441406 -16.640625 16.390625 -17.265625 C 15.335938 -17.898438 14.1875 -18.21875 12.9375 -18.21875 C 11.65625 -18.21875 10.492188 -17.898438 9.453125 -17.265625 C 8.410156 -16.640625 7.585938 -15.785156 6.984375 -14.703125 C 6.378906 -13.617188 6.078125 -12.429688 6.078125 -11.140625 Z M 6.078125 -11.140625 "/></g></g></g><g fill="#ffffff" fill-opacity="1"><g transform="translate(150.441639, 199.849651)"><g><path d="M 6.828125 -8.25 C 6.828125 -7.539062 7.039062 -6.863281 7.46875 -6.21875 C 7.894531 -5.570312 8.460938 -5.046875 9.171875 -4.640625 C 9.878906 -4.234375 10.640625 -4.03125 11.453125 -4.03125 C 12.316406 -4.03125 13.113281 -4.234375 13.84375 -4.640625 C 14.570312 -5.046875 15.144531 -5.570312 15.5625 -6.21875 C 15.976562 -6.863281 16.1875 -7.539062 16.1875 -8.25 L 16.1875 -22.34375 L 20.515625 -22.34375 L 20.515625 -8.171875 C 20.515625 -6.566406 20.109375 -5.117188 19.296875 -3.828125 C 18.492188 -2.546875 17.398438 -1.546875 16.015625 -0.828125 C 14.628906 -0.109375 13.109375 0.25 11.453125 0.25 C 9.785156 0.25 8.265625 -0.109375 6.890625 -0.828125 C 5.515625 -1.546875 4.425781 -2.546875 3.625 -3.828125 C 2.820312 -5.117188 2.421875 -6.566406 2.421875 -8.171875 L 2.421875 -22.34375 L 6.828125 -22.34375 Z M 6.828125 -8.25 "/></g></g></g><g fill="#ffffff" fill-opacity="1"><g transform="translate(185.541366, 199.849651)"><g><path d="M 7.28125 -22.34375 L 7.28125 0 L 2.890625 0 L 2.890625 -22.34375 Z M 7.28125 -22.34375 "/></g></g></g><g fill="#ffffff" fill-opacity="1"><g transform="translate(207.859234, 199.849651)"><g><path d="M 9.65625 -22.34375 C 12.382812 -22.34375 14.5 -21.671875 16 -20.328125 C 17.5 -18.984375 18.25 -17.144531 18.25 -14.8125 C 18.25 -13.476562 17.988281 -12.226562 17.46875 -11.0625 C 16.957031 -9.894531 16.117188 -8.9375 14.953125 -8.1875 C 13.785156 -7.445312 12.28125 -7.078125 10.4375 -7.078125 L 7.28125 -7.078125 L 7.28125 0 L 2.890625 0 L 2.890625 -22.34375 Z M 10.40625 -11.359375 C 11.238281 -11.359375 11.90625 -11.546875 12.40625 -11.921875 C 12.914062 -12.296875 13.28125 -12.734375 13.5 -13.234375 C 13.726562 -13.742188 13.84375 -14.226562 13.84375 -14.6875 C 13.84375 -15.476562 13.609375 -16.242188 13.140625 -16.984375 C 12.679688 -17.722656 11.78125 -18.09375 10.4375 -18.09375 L 7.28125 -18.09375 L 7.28125 -11.359375 Z M 10.40625 -11.359375 "/></g></g></g><g fill="#ffffff" fill-opacity="1"><g transform="translate(239.315675, 199.849651)"><g><path d="M 7.28125 -22.34375 L 7.28125 0 L 2.890625 0 L 2.890625 -22.34375 Z M 7.28125 -22.34375 "/></g></g></g><g fill="#ffffff" fill-opacity="1"><g transform="translate(261.633547, 199.849651)"><g><path d="M 16.84375 -22.34375 L 16.84375 -18.09375 L 7.28125 -18.09375 L 7.28125 -13.03125 L 15.578125 -13.03125 L 15.578125 -8.78125 L 7.28125 -8.78125 L 7.28125 0 L 2.890625 0 L 2.890625 -22.34375 Z M 16.84375 -22.34375 "/></g></g></g><g fill="#ffffff" fill-opacity="1"><g transform="translate(291.996998, 199.849651)"><g><path d="M 21.46875 -22.34375 L 13.078125 -6.953125 L 13.078125 0 L 8.6875 0 L 8.6875 -6.953125 L 0.453125 -22.34375 L 5.890625 -22.34375 L 11.015625 -12.015625 L 16.03125 -22.34375 Z M 21.46875 -22.34375 "/></g></g></g></svg>