<svg xmlns="http://www.w3.org/2000/svg" xmlns:xlink="http://www.w3.org/1999/xlink" width="500" zoomAndPan="magnify" viewBox="0 0 375 374.999991" height="500" preserveAspectRatio="xMidYMid meet" version="1.0"><defs><g/><clipPath id="e494f0faf5"><path d="M 50 166 L 87.921875 166 L 87.921875 204 L 50 204 Z M 50 166 " clip-rule="nonzero"/></clipPath></defs><g clip-path="url(#e494f0faf5)"><path fill="#ffffff" d="M 50.183594 195.679688 L 50.183594 173.492188 C 50.175781 172.492188 50.367188 171.535156 50.757812 170.613281 C 51.132812 169.726562 51.664062 168.945312 52.34375 168.265625 C 53.023438 167.582031 53.808594 167.054688 54.691406 166.679688 C 55.613281 166.289062 56.574219 166.09375 57.574219 166.101562 L 83.457031 166.101562 C 83.945312 166.101562 84.417969 166.195312 84.871094 166.382812 C 85.324219 166.570312 85.722656 166.839844 86.070312 167.183594 C 86.417969 167.53125 86.683594 167.933594 86.871094 168.386719 C 87.058594 168.839844 87.152344 169.308594 87.152344 169.800781 C 87.152344 170.289062 87.058594 170.761719 86.871094 171.214844 C 86.683594 171.667969 86.417969 172.066406 86.070312 172.414062 C 85.722656 172.761719 85.324219 173.027344 84.871094 173.214844 C 84.417969 173.402344 83.945312 173.496094 83.457031 173.496094 L 59.898438 173.496094 C 59.589844 173.5 59.292969 173.5625 59.011719 173.679688 C 58.726562 173.800781 58.476562 173.96875 58.257812 174.183594 C 58.042969 174.402344 57.875 174.652344 57.753906 174.933594 C 57.636719 175.21875 57.574219 175.515625 57.574219 175.820312 L 57.574219 193.355469 C 57.574219 193.660156 57.636719 193.957031 57.753906 194.242188 C 57.875 194.523438 58.042969 194.773438 58.257812 194.992188 C 58.476562 195.210938 58.726562 195.378906 59.011719 195.496094 C 59.292969 195.613281 59.589844 195.675781 59.898438 195.679688 L 83.457031 195.679688 C 83.945312 195.679688 84.417969 195.773438 84.871094 195.960938 C 85.324219 196.148438 85.722656 196.414062 86.070312 196.761719 C 86.417969 197.109375 86.683594 197.507812 86.871094 197.960938 C 87.058594 198.414062 87.152344 198.886719 87.152344 199.375 C 87.152344 199.867188 87.058594 200.335938 86.871094 200.789062 C 86.683594 201.242188 86.417969 201.644531 86.070312 201.988281 C 85.722656 202.335938 85.324219 202.605469 84.871094 202.792969 C 84.417969 202.980469 83.945312 203.074219 83.457031 203.074219 L 57.574219 203.074219 C 56.574219 203.078125 55.613281 202.886719 54.695312 202.492188 C 53.808594 202.117188 53.023438 201.589844 52.34375 200.90625 C 51.664062 200.226562 51.136719 199.445312 50.757812 198.558594 C 50.367188 197.636719 50.175781 196.679688 50.183594 195.679688 Z M 50.183594 195.679688 " fill-opacity="1" fill-rule="nonzero"/></g><path fill="#ffffff" d="M 73.226562 184.585938 C 73.226562 184.886719 73.199219 185.183594 73.140625 185.476562 C 73.082031 185.769531 72.992188 186.054688 72.878906 186.332031 C 72.765625 186.609375 72.625 186.871094 72.457031 187.121094 C 72.292969 187.367188 72.101562 187.597656 71.890625 187.8125 C 71.679688 188.023438 71.449219 188.210938 71.199219 188.378906 C 70.949219 188.542969 70.6875 188.683594 70.410156 188.800781 C 70.132812 188.914062 69.847656 189 69.554688 189.058594 C 69.261719 189.117188 68.964844 189.148438 68.664062 189.148438 C 68.367188 189.148438 68.070312 189.117188 67.777344 189.058594 C 67.480469 189 67.195312 188.914062 66.917969 188.800781 C 66.644531 188.683594 66.378906 188.542969 66.132812 188.378906 C 65.882812 188.210938 65.652344 188.023438 65.441406 187.8125 C 65.226562 187.597656 65.039062 187.367188 64.871094 187.121094 C 64.707031 186.871094 64.566406 186.609375 64.453125 186.332031 C 64.335938 186.054688 64.25 185.769531 64.191406 185.476562 C 64.132812 185.183594 64.105469 184.886719 64.105469 184.585938 C 64.105469 184.285156 64.132812 183.988281 64.191406 183.695312 C 64.25 183.402344 64.335938 183.117188 64.453125 182.839844 C 64.566406 182.5625 64.707031 182.300781 64.871094 182.050781 C 65.039062 181.800781 65.226562 181.570312 65.441406 181.359375 C 65.652344 181.148438 65.882812 180.960938 66.132812 180.792969 C 66.378906 180.625 66.644531 180.484375 66.917969 180.371094 C 67.195312 180.257812 67.480469 180.171875 67.777344 180.113281 C 68.070312 180.054688 68.367188 180.023438 68.664062 180.023438 C 68.964844 180.023438 69.261719 180.054688 69.554688 180.113281 C 69.847656 180.171875 70.132812 180.257812 70.410156 180.371094 C 70.6875 180.484375 70.949219 180.625 71.199219 180.792969 C 71.449219 180.960938 71.679688 181.148438 71.890625 181.359375 C 72.101562 181.570312 72.292969 181.800781 72.457031 182.050781 C 72.625 182.300781 72.765625 182.5625 72.878906 182.839844 C 72.992188 183.117188 73.082031 183.402344 73.140625 183.695312 C 73.199219 183.988281 73.226562 184.285156 73.226562 184.585938 Z M 73.226562 184.585938 " fill-opacity="1" fill-rule="nonzero"/><g fill="#ffffff" fill-opacity="1"><g transform="translate(94.874828, 197.524666)"><g><path d="M 28.171875 0 L 16.78125 0 C 15.882812 0.175781 15.023438 0.265625 14.203125 0.265625 C 11.929688 0.265625 9.835938 -0.296875 7.921875 -1.421875 C 6.003906 -2.546875 4.484375 -4.066406 3.359375 -5.984375 C 2.234375 -7.898438 1.671875 -9.992188 1.671875 -12.265625 C 1.671875 -14.492188 2.234375 -16.578125 3.359375 -18.515625 C 4.484375 -20.453125 6.007812 -21.992188 7.9375 -23.140625 C 9.863281 -24.285156 11.953125 -24.859375 14.203125 -24.859375 C 16.453125 -24.859375 18.539062 -24.285156 20.46875 -23.140625 C 22.394531 -21.992188 23.929688 -20.453125 25.078125 -18.515625 C 26.222656 -16.578125 26.796875 -14.492188 26.796875 -12.265625 C 26.796875 -10.878906 26.570312 -9.546875 26.125 -8.265625 C 25.6875 -6.984375 25.066406 -5.8125 24.265625 -4.75 L 28.171875 -4.75 Z M 6.6875 -12.265625 C 6.6875 -10.835938 7.023438 -9.523438 7.703125 -8.328125 C 8.378906 -7.140625 9.300781 -6.191406 10.46875 -5.484375 C 11.644531 -4.785156 12.945312 -4.4375 14.375 -4.4375 C 15.75 -4.4375 17.003906 -4.785156 18.140625 -5.484375 C 19.285156 -6.191406 20.179688 -7.140625 20.828125 -8.328125 C 21.472656 -9.523438 21.796875 -10.835938 21.796875 -12.265625 C 21.796875 -13.691406 21.457031 -15 20.78125 -16.1875 C 20.113281 -17.382812 19.203125 -18.328125 18.046875 -19.015625 C 16.890625 -19.703125 15.617188 -20.046875 14.234375 -20.046875 C 12.828125 -20.046875 11.550781 -19.703125 10.40625 -19.015625 C 9.257812 -18.328125 8.351562 -17.382812 7.6875 -16.1875 C 7.019531 -15 6.6875 -13.691406 6.6875 -12.265625 Z M 6.6875 -12.265625 "/></g></g></g><g fill="#ffffff" fill-opacity="1"><g transform="translate(138.085959, 197.524666)"><g><path d="M 7.515625 -9.09375 C 7.515625 -8.3125 7.75 -7.5625 8.21875 -6.84375 C 8.6875 -6.132812 9.3125 -5.554688 10.09375 -5.109375 C 10.875 -4.660156 11.707031 -4.4375 12.59375 -4.4375 C 13.550781 -4.4375 14.429688 -4.660156 15.234375 -5.109375 C 16.035156 -5.554688 16.664062 -6.132812 17.125 -6.84375 C 17.582031 -7.5625 17.8125 -8.3125 17.8125 -9.09375 L 17.8125 -24.59375 L 22.59375 -24.59375 L 22.59375 -8.984375 C 22.59375 -7.222656 22.144531 -5.632812 21.25 -4.21875 C 20.363281 -2.8125 19.15625 -1.710938 17.625 -0.921875 C 16.101562 -0.128906 14.425781 0.265625 12.59375 0.265625 C 10.769531 0.265625 9.097656 -0.128906 7.578125 -0.921875 C 6.066406 -1.710938 4.867188 -2.8125 3.984375 -4.21875 C 3.109375 -5.632812 2.671875 -7.222656 2.671875 -8.984375 L 2.671875 -24.59375 L 7.515625 -24.59375 Z M 7.515625 -9.09375 "/></g></g></g><g fill="#ffffff" fill-opacity="1"><g transform="translate(176.718968, 197.524666)"><g><path d="M 8.015625 -24.59375 L 8.015625 0 L 3.171875 0 L 3.171875 -24.59375 Z M 8.015625 -24.59375 "/></g></g></g><g fill="#ffffff" fill-opacity="1"><g transform="translate(201.283442, 197.524666)"><g><path d="M 10.625 -24.59375 C 13.632812 -24.59375 15.960938 -23.851562 17.609375 -22.375 C 19.265625 -20.894531 20.09375 -18.875 20.09375 -16.3125 C 20.09375 -14.84375 19.804688 -13.46875 19.234375 -12.1875 C 18.660156 -10.90625 17.734375 -9.847656 16.453125 -9.015625 C 15.171875 -8.191406 13.519531 -7.78125 11.5 -7.78125 L 8.015625 -7.78125 L 8.015625 0 L 3.171875 0 L 3.171875 -24.59375 Z M 11.46875 -12.5 C 12.375 -12.5 13.101562 -12.703125 13.65625 -13.109375 C 14.21875 -13.523438 14.617188 -14.007812 14.859375 -14.5625 C 15.109375 -15.125 15.234375 -15.660156 15.234375 -16.171875 C 15.234375 -17.046875 14.976562 -17.890625 14.46875 -18.703125 C 13.957031 -19.515625 12.96875 -19.921875 11.5 -19.921875 L 8.015625 -19.921875 L 8.015625 -12.5 Z M 11.46875 -12.5 "/></g></g></g><g fill="#ffffff" fill-opacity="1"><g transform="translate(235.906417, 197.524666)"><g><path d="M 8.015625 -24.59375 L 8.015625 0 L 3.171875 0 L 3.171875 -24.59375 Z M 8.015625 -24.59375 "/></g></g></g><g fill="#ffffff" fill-opacity="1"><g transform="translate(260.470897, 197.524666)"><g><path d="M 18.546875 -24.59375 L 18.546875 -19.921875 L 8.015625 -19.921875 L 8.015625 -14.34375 L 17.140625 -14.34375 L 17.140625 -9.65625 L 8.015625 -9.65625 L 8.015625 0 L 3.171875 0 L 3.171875 -24.59375 Z M 18.546875 -24.59375 "/></g></g></g><g fill="#ffffff" fill-opacity="1"><g transform="translate(293.890858, 197.524666)"><g><path d="M 23.625 -24.59375 L 14.40625 -7.65625 L 14.40625 0 L 9.5625 0 L 9.5625 -7.65625 L 0.5 -24.59375 L 6.484375 -24.59375 L 12.125 -13.234375 L 17.640625 -24.59375 Z M 23.625 -24.59375 "/></g></g></g></svg>